<svg width="12" height="12" viewBox="0 0 12 12" fill="none" xmlns="http://www.w3.org/2000/svg">
<path d="M1 1H1.65308C1.77609 1 1.83759 1 1.88709 1.02262C1.93071 1.04255 1.96767 1.07461 1.99357 1.11497C2.02296 1.16077 2.03167 1.22166 2.04906 1.34343L2.28572 3M2.28572 3L2.81166 6.8657C2.87841 7.35625 2.91178 7.60155 3.02905 7.78615C3.13239 7.94885 3.28054 8.0782 3.45567 8.1587C3.65443 8.25 3.90197 8.25 4.39706 8.25H8.676C9.14725 8.25 9.3829 8.25 9.5755 8.1652C9.74525 8.09045 9.8909 7.9699 9.99615 7.8171C10.1155 7.6438 10.1596 7.41235 10.2478 6.9494L10.9095 3.47484C10.9406 3.3119 10.9561 3.23043 10.9336 3.16675C10.9139 3.11088 10.8749 3.06384 10.8237 3.03401C10.7654 3 10.6825 3 10.5166 3H2.28572ZM5 10.5C5 10.7761 4.77614 11 4.5 11C4.22386 11 4 10.7761 4 10.5C4 10.2239 4.22386 10 4.5 10C4.77614 10 5 10.2239 5 10.5ZM9 10.5C9 10.7761 8.77615 11 8.5 11C8.22385 11 8 10.7761 8 10.5C8 10.2239 8.22385 10 8.5 10C8.77615 10 9 10.2239 9 10.5Z" stroke="#475569" stroke-width="2" stroke-linecap="round" stroke-linejoin="round"/>
</svg>
