<svg width="29" height="30" viewBox="0 0 29 30" fill="none" xmlns="http://www.w3.org/2000/svg">
<path d="M7.75 12.3761H7.765M14.5 12.3761H14.515M21.25 12.3761H21.265M7 23.7523V27.2948C7 28.1031 7 28.5072 7.16385 28.7147C7.30633 28.8952 7.5224 29.0003 7.75081 29C8.01344 28.9997 8.3255 28.7473 8.94964 28.2423L12.5278 25.3477C13.2587 24.7564 13.6243 24.4608 14.0312 24.2505C14.3923 24.064 14.7766 23.9276 15.1738 23.8452C15.6215 23.7523 16.0895 23.7523 17.0255 23.7523H20.8C23.3203 23.7523 24.5803 23.7523 25.543 23.2563C26.3897 22.82 27.0781 22.124 27.5095 21.2677C28 20.2942 28 19.0201 28 16.4715V8.28073C28 5.73223 28 4.45798 27.5095 3.48459C27.0781 2.62836 26.3897 1.93224 25.543 1.49597C24.5803 1 23.3203 1 20.8 1H8.2C5.67976 1 4.41964 1 3.45705 1.49597C2.61031 1.93224 1.9219 2.62836 1.49047 3.48459C1 4.45798 1 5.73223 1 8.28073V17.685C1 19.0956 1 19.801 1.15333 20.3796C1.56943 21.9498 2.7824 23.1765 4.33531 23.5972C4.90756 23.7523 5.60504 23.7523 7 23.7523ZM8.5 12.3761C8.5 12.7949 8.16421 13.1345 7.75 13.1345C7.33579 13.1345 7 12.7949 7 12.3761C7 11.9573 7.33579 11.6177 7.75 11.6177C8.16421 11.6177 8.5 11.9573 8.5 12.3761ZM15.25 12.3761C15.25 12.7949 14.9142 13.1345 14.5 13.1345C14.0858 13.1345 13.75 12.7949 13.75 12.3761C13.75 11.9573 14.0858 11.6177 14.5 11.6177C14.9142 11.6177 15.25 11.9573 15.25 12.3761ZM22 12.3761C22 12.7949 21.6642 13.1345 21.25 13.1345C20.8358 13.1345 20.5 12.7949 20.5 12.3761C20.5 11.9573 20.8358 11.6177 21.25 11.6177C21.6642 11.6177 22 11.9573 22 12.3761Z" stroke="#1E7F5C" stroke-width="2" stroke-linecap="round" stroke-linejoin="round"/>
</svg>
